<svg xmlns="http://www.w3.org/2000/svg" viewBox="0 0 154.46 189.06"><defs><style>.a{fill:#4a68b1;}.b{fill:#1d1b1c;}.c{fill:#dc1f26;}.d{opacity:0.5;}</style></defs><title>light-icon-logo-01</title><polygon class="a" points="143.04 154.3 62.1 154.3 33.77 179.28 33.34 154.3 11.73 154.3 11.73 73.65 143.04 73.65 143.04 154.3"/><path class="b" d="M71.22,220l-.52-30.28H49V100.14H189.29v89.61H105.56ZM58,180.79H79.51l.34,19.69,22.33-19.69h78.15V109.1H58Z" transform="translate(-41.77 -30.97)"/><rect class="a" x="4.48" y="34.47" width="145.5" height="39.18"/><path class="b" d="M196.23,109.1H41.77V61H196.23Zm-145.5-9H187.27V69.92H50.73Z" transform="translate(-41.77 -30.97)"/><rect class="c" x="63.22" y="33.07" width="28.01" height="119.42"/><path class="b" d="M135.69,186.14H102.31V61.35h33.38Zm-28-5.38h22.64v-114H107.68Z" transform="translate(-41.77 -30.97)"/><rect class="d" x="137.95" y="34.24" width="8.96" height="39.41"/><polygon class="d" points="139.74 80.96 139.74 156.06 130.78 156.06 130.78 82.61 8.94 82.61 8.94 73.65 138.54 73.65 138.54 80.96 139.74 80.96"/><path class="c" d="M101.31,39.44c12.21,9.17,21.75,17.89,18.61,22.71-2.8,4.28-15.2,1.29-29-4.76s-11.72-10.8-8.29-16.75S89.18,30.33,101.31,39.44Z" transform="translate(-41.77 -30.97)"/><path class="b" d="M114.34,66.82c-6.82,0-16.36-3.4-24.47-7C82.74,56.73,79,53.69,77.82,50c-1.33-4,.8-7.74,2.52-10.71s3.88-6.74,8.12-7.6c3.82-.77,8.28.94,14.46,5.59,12.7,9.53,23.82,19.32,19.25,26.33C120.68,65.9,117.87,66.82,114.34,66.82ZM90.22,36.9a3.31,3.31,0,0,0-.68.07c-1.73.35-3,2.39-4.55,5s-2.6,4.71-2.06,6.35c.45,1.38,2.4,3.65,9.1,6.59,17.26,7.58,24.72,7.14,25.63,5.75.58-.88,1-4.87-18-19.09h0C94.7,37.84,91.84,36.9,90.22,36.9Z" transform="translate(-41.77 -30.97)"/><path class="c" d="M136.69,38.89c-12.21,9.17-21.75,17.89-18.6,22.71,2.79,4.28,15.19,1.29,29-4.75S158.77,46,155.34,40.1,148.82,29.79,136.69,38.89Z" transform="translate(-41.77 -30.97)"/><path class="b" d="M123.66,66.27c-3.53,0-6.34-.91-7.83-3.2-4.57-7,6.55-16.8,19.25-26.33h0c6.19-4.65,10.65-6.38,14.46-5.59,4.24.87,6.48,4.76,8.12,7.6s3.85,6.66,2.52,10.72c-1.2,3.67-4.92,6.71-12,9.84C140,62.87,130.48,66.27,123.66,66.27ZM138.3,41c-18.94,14.23-18.54,18.21-18,19.09.91,1.4,8.37,1.83,25.63-5.75,6.7-2.94,8.65-5.2,9.1-6.59.54-1.64-.56-3.75-2.06-6.35s-2.82-4.67-4.55-5c-1.44-.29-4.36.27-10.16,4.62Z" transform="translate(-41.77 -30.97)"/><circle class="c" cx="77.23" cy="27.52" r="8.5"/><path class="b" d="M119,69.68a11.19,11.19,0,1,1,11.19-11.19A11.2,11.2,0,0,1,119,69.68Zm0-17a5.82,5.82,0,1,0,5.81,5.81A5.81,5.81,0,0,0,119,52.68Z" transform="translate(-41.77 -30.97)"/><path class="b" d="M71.22,220l-.52-30.28H49V100.14H189.29v89.61H105.56ZM58,180.79H79.51l.34,19.69,22.33-19.69h78.15V109.1H58Z" transform="translate(-41.77 -30.97)"/><path class="b" d="M196.23,109.1H41.77V61H196.23Zm-145.5-9H187.27V69.92H50.73Z" transform="translate(-41.77 -30.97)"/></svg>