<svg xmlns="http://www.w3.org/2000/svg" viewBox="0 0 163.42 203.32"><defs><style>.a{fill:#fff;}.b,.f{opacity:0.5;}.c{fill:#4a68b1;}.d{fill:#1d1b1c;}.e{fill:#dc1f26;}</style></defs><title>dark-icon-logo-01</title><polygon class="a" points="147.52 158.79 66.58 158.79 38.25 183.77 37.82 158.79 16.22 158.79 16.22 78.14 147.52 78.14 147.52 158.79"/><path class="a" d="M66.91,227.16l-.61-35.57H44.54V93H193.77v98.58H107.26Zm-4.44-53.49H83.92l.24,14.38,16.32-14.38h75.37V110.94H62.47Z" transform="translate(-37.29 -23.84)"/><rect class="a" x="8.96" y="38.96" width="145.5" height="39.18"/><path class="a" d="M200.71,110.94H37.29V53.83H200.71ZM55.21,93H182.79V71.76H55.21Z" transform="translate(-37.29 -23.84)"/><rect class="a" x="67.71" y="37.55" width="28.01" height="119.42"/><path class="a" d="M142,189.77H96V52.43H142Zm-28-17.92H124V70.35H114Z" transform="translate(-37.29 -23.84)"/><g class="b"><rect class="a" x="142.43" y="38.72" width="8.96" height="39.41"/><rect class="a" x="133.47" y="29.76" width="26.88" height="57.34"/></g><path class="a" d="M101.31,36.79C113.52,46,123.06,54.68,119.92,59.5c-2.8,4.28-15.2,1.29-29-4.75S79.23,43.94,82.66,38,89.18,27.69,101.31,36.79Z" transform="translate(-37.29 -23.84)"/><path class="a" d="M114.42,68.72c-6.4,0-15.09-2.47-26.35-7.41-8.4-3.68-12.87-7.55-14.51-12.55-2-5.95,1-11,2.9-14.35,1.83-3.17,4.89-8.48,11.1-9.75,5.19-1.06,10.75.92,18,6.4h0c10.4,7.81,27.81,20.87,20.31,32.36C123.62,67,119.84,68.72,114.42,68.72Zm-27-24.29c.57.58,2.2,1.89,6.44,3.75a84.91,84.91,0,0,0,16.6,5.7A112,112,0,0,0,97,42.53h0c-3.67-2.75-5.59-3.51-6.36-3.72a24.41,24.41,0,0,0-1.78,2.77A26.75,26.75,0,0,0,87.39,44.43Z" transform="translate(-37.29 -23.84)"/><path class="a" d="M136.69,36.25c-12.21,9.17-21.75,17.89-18.6,22.71,2.79,4.28,15.19,1.28,29-4.76s11.72-10.8,8.29-16.75S148.82,27.14,136.69,36.25Z" transform="translate(-37.29 -23.84)"/><path class="a" d="M123.58,68.17c-5.42,0-9.2-1.77-11.5-5.3-7.5-11.48,9.91-24.55,20.3-32.36h0c7.3-5.48,12.87-7.46,18.05-6.39,6.21,1.27,9.27,6.57,11.11,9.75,1.92,3.34,4.84,8.39,2.89,14.34-1.64,5-6.11,8.87-14.5,12.55C138.67,65.71,130,68.17,123.58,68.17ZM141,42a112,112,0,0,0-13.42,11.35,84.69,84.69,0,0,0,16.6-5.7c4.24-1.85,5.87-3.16,6.44-3.74A25,25,0,0,0,149.13,41a24.93,24.93,0,0,0-1.78-2.77c-.77.2-2.69,1-6.36,3.71Z" transform="translate(-37.29 -23.84)"/><circle class="a" cx="81.71" cy="32.01" r="8.5"/><path class="a" d="M119,71.52a15.68,15.68,0,1,1,15.67-15.67A15.69,15.69,0,0,1,119,71.52Zm0-17a1.34,1.34,0,1,0,1.33,1.34A1.33,1.33,0,0,0,119,54.51Z" transform="translate(-37.29 -23.84)"/><polygon class="a" points="147.52 158.79 66.58 158.79 38.25 183.77 37.82 158.79 16.22 158.79 16.22 78.14 147.52 78.14 147.52 158.79"/><path class="a" d="M66.91,227.16l-.61-35.57H44.54V93H193.77v98.58H107.26Zm-4.44-53.49H83.92l.24,14.38,16.32-14.38h75.37V110.94H62.47Z" transform="translate(-37.29 -23.84)"/><rect class="a" x="8.96" y="38.96" width="145.5" height="39.18"/><path class="a" d="M200.71,110.94H37.29V53.83H200.71ZM55.21,93H182.79V71.76H55.21Z" transform="translate(-37.29 -23.84)"/><polygon class="c" points="147.52 158.79 66.58 158.79 38.25 183.77 37.82 158.79 16.22 158.79 16.22 78.14 147.52 78.14 147.52 158.79"/><path class="d" d="M71.22,217.38l-.52-30.27H49V97.49H189.29v89.62H105.56ZM58,178.15H79.51l.34,19.68,22.33-19.68h78.15v-71.7H58Z" transform="translate(-37.29 -23.84)"/><rect class="c" x="8.96" y="38.96" width="145.5" height="39.18"/><path class="d" d="M196.23,106.45H41.77V58.31H196.23Zm-145.5-9H187.27V67.28H50.73Z" transform="translate(-37.29 -23.84)"/><rect class="e" x="67.71" y="37.55" width="28.01" height="119.42"/><path class="d" d="M135.69,183.5H102.31V58.7h33.38Zm-28-5.38h22.64v-114H107.68Z" transform="translate(-37.29 -23.84)"/><rect class="f" x="142.43" y="38.72" width="8.96" height="39.41"/><polygon class="f" points="144.22 85.45 144.22 160.54 135.26 160.54 135.26 87.1 13.42 87.1 13.42 78.14 143.02 78.14 143.02 85.45 144.22 85.45"/><path class="e" d="M101.31,36.79C113.52,46,123.06,54.68,119.92,59.5c-2.8,4.28-15.2,1.29-29-4.75S79.23,43.94,82.66,38,89.18,27.69,101.31,36.79Z" transform="translate(-37.29 -23.84)"/><path class="d" d="M114.34,64.17c-6.82,0-16.36-3.4-24.47-7C82.74,54.08,79,51,77.82,47.37c-1.33-4.06.8-7.75,2.52-10.72s3.88-6.73,8.12-7.6c3.82-.77,8.28.95,14.46,5.59C115.62,44.17,126.74,54,122.17,61,120.68,63.26,117.87,64.17,114.34,64.17ZM90.22,34.26a3.37,3.37,0,0,0-.68.06c-1.73.35-3,2.39-4.55,5s-2.6,4.71-2.06,6.35c.45,1.38,2.4,3.65,9.1,6.59,17.26,7.58,24.72,7.15,25.63,5.75.58-.88,1-4.86-18-19.09h0C94.7,35.19,91.84,34.26,90.22,34.26Z" transform="translate(-37.29 -23.84)"/><path class="e" d="M136.69,36.25c-12.21,9.17-21.75,17.89-18.6,22.71,2.79,4.28,15.19,1.28,29-4.76s11.72-10.8,8.29-16.75S148.82,27.14,136.69,36.25Z" transform="translate(-37.29 -23.84)"/><path class="d" d="M123.66,63.63c-3.53,0-6.34-.92-7.83-3.21-4.57-7,6.55-16.79,19.25-26.32h0c6.19-4.65,10.65-6.38,14.46-5.59,4.24.86,6.48,4.75,8.12,7.6s3.85,6.66,2.52,10.71c-1.2,3.68-4.92,6.71-12,9.84C140,60.22,130.48,63.63,123.66,63.63ZM138.3,38.4c-18.94,14.22-18.54,18.2-18,19.09.91,1.39,8.37,1.82,25.63-5.75,6.7-2.94,8.65-5.21,9.1-6.6.54-1.64-.56-3.75-2.06-6.35s-2.82-4.66-4.55-5c-1.44-.29-4.36.28-10.16,4.63Z" transform="translate(-37.29 -23.84)"/><circle class="e" cx="81.71" cy="32.01" r="8.5"/><path class="d" d="M119,67a11.2,11.2,0,1,1,11.19-11.19A11.2,11.2,0,0,1,119,67Zm0-17a5.82,5.82,0,1,0,5.81,5.82A5.82,5.82,0,0,0,119,50Z" transform="translate(-37.29 -23.84)"/><path class="d" d="M71.22,217.38l-.52-30.27H49V97.49H189.29v89.62H105.56ZM58,178.15H79.51l.34,19.68,22.33-19.68h78.15v-71.7H58Z" transform="translate(-37.29 -23.84)"/><path class="d" d="M196.23,106.45H41.77V58.31H196.23Zm-145.5-9H187.27V67.28H50.73Z" transform="translate(-37.29 -23.84)"/></svg>
